# xmcd CD database file
#
# Track frame offsets:
#	150
#	11305
#	25557
#	39182
#	54657
#	71255
#	79537
#	95051
#	112871
#	130742
#	144248
#	157058
#	173450
#	187221
#	203632
#	218380
#	235563
#	247264
#
# Disc length: 3469 seconds
#
# Revision: 0
# Processed by: cddbd v1.5.2PL0 Copyright (c) Steve Scherf et al.
# Submitted via: ACXtractor (MTCDDB.DLL V2003.07.15)
#
DISCID=da0d8b12
DTITLE=Foster and Allen Daniel - After All these Years
DYEAR=2005
DGENRE=Country
TTITLE0=Do You Think You Could
TTITLE1=The Leaving of Liverpool
TTITLE2=Old Arbdoe
TTITLE3=Six Foot Seven Woman
TTITLE4=When My Blue Moon Turns to Gold
TTITLE5=The Scotts Polka
TTITLE6=You Lied to the Moon and the Stars
TTITLE7=Candle Light and Wine
TTITLE8=Farewell Party
TTITLE9=Moonlight in Mayo
TTITLE10=In That Land
TTITLE11=Tar And Cement
TTITLE12=Beyound the Rainbow
TTITLE13=Take the Hand of Love
TTITLE14=I Forgot to Remember
TTITLE15=Don't Break My Heart
TTITLE16=You Gotta Feel Love
TTITLE17=Love Me or Leave Me
EXTD=ID3G:   2 YEAR: 2005
EXTT0=
EXTT1=
EXTT2=
EXTT3=
EXTT4=
EXTT5=
EXTT6=
EXTT7=
EXTT8=
EXTT9=
EXTT10=
EXTT11=
EXTT12=
EXTT13=
EXTT14=
EXTT15=
EXTT16=
EXTT17=
PLAYORDER=
